# xmcd
#
# Track frame offsets:
#	150
#	17246
#	34038
#	48595
#	60787
#	76623
#	95031
#	110545
#	125034
#	139107
#	152471
#	173513
#	191314
#	207470
#	222343
#	253146
#
# Disc length: 3923 seconds
#
# Revision: 3
# Processed by: cddbd v1.5.2PL0 Copyright (c) Steve Scherf et al.
# Submitted via: audiograbber 1.83.01
#
DISCID=d60f5110
DTITLE=Various Artist - Best Of Millennium Country: Vol. 2
DYEAR=1900
DGENRE=Karaoke
TTITLE0=Jamie O'neal - Somebody's Hero
TTITLE1=Jason Aldean - Hicktown
TTITLE2=Alan Jackson - Why
TTITLE3=Josh Gracin - Nothin To Loose
TTITLE4=Josh Turner - Your Mom
TTITLE5=Kenny Chesney - I Go Back
TTITLE6=Kenny Chesney - Summertime
TTITLE7=Martina Mcmbride - Im My Daughter's Eyes
TTITLE8=Shania Twain - Up
TTITLE9=Terri Clark - I Wanna Do It All
TTITLE10=Tim Mcgraw - Back When
TTITLE11=Tim Mcgraw - Unbroken
TTITLE12=Toby Keith - Who's Your Daddy
TTITLE13=Trace Adkins - Rough and Ready
TTITLE14=Trace Adkins - Then They Do
TTITLE15=Data Track - Data Track
EXTD=All Star Karaoke ASK 66 Vol. 2 Disk 2
EXTT0=
EXTT1=
EXTT2=
EXTT3=
EXTT4=
EXTT5=
EXTT6=
EXTT7=
EXTT8=
EXTT9=
EXTT10=
EXTT11=
EXTT12=
EXTT13=
EXTT14=
EXTT15=
PLAYORDER=
